# xmcd
#
# Track frame offsets:
#	150
#	15019
#	31762
#	47175
#	61488
#	71470
#	85683
#	99260
#	110208
#	123168
#	141208
#	142368
#
# Disc length: 1905 seconds
#
# Revision: 1
# Processed by: cddbd v1.5.2PL0 Copyright (c) Steve Scherf et al.
# Submitted via: audiograbber 1.83.01
#
DISCID=9f076f0c
DTITLE=Various Artist - Hillcrest #05
DYEAR=1900
DGENRE=Country
TTITLE0=Isabell - Undertakin' Daddies
TTITLE1=Kevin Banford - Pride In My Misery
TTITLE2=Diana Kelley - Love Breakdown
TTITLE3=Lewis Frere - God Bless The Innocent
TTITLE4=Brian Dolph - A Rose Between Two Thorns
TTITLE5=Larry Ford - Trouble Just Hit Town
TTITLE6=Saskia Munroe - I Wonder How You Are
TTITLE7=Brad Kepler - Christmas In Heaven
TTITLE8=Neil Matthews - Broken Hearts
TTITLE9=Ronnie Dean - My Dream Lady
TTITLE10=Lewis Frere - Liner
TTITLE11=Brian Dolph - Liner
EXTD=
EXTT0=
EXTT1=
EXTT2=
EXTT3=
EXTT4=
EXTT5=
EXTT6=
EXTT7=
EXTT8=
EXTT9=
EXTT10=
EXTT11=
PLAYORDER=
